<svg width="48" height="48" viewBox="0 0 48 48" fill="none" xmlns="http://www.w3.org/2000/svg">
<g filter="url(#filter0_d_69_634)">
<rect x="4" width="40" height="40" rx="20" fill="#323436" shape-rendering="crispEdges"/>
<path d="M25.3333 18.6667H28.5093C28.7366 18.6667 28.96 18.7248 29.1585 18.8354C29.357 18.9461 29.5239 19.1056 29.6434 19.2989C29.7629 19.4922 29.831 19.7128 29.8413 19.9398C29.8515 20.1669 29.8036 20.3927 29.702 20.596L27.3687 25.2627C27.2579 25.4843 27.0876 25.6707 26.8768 25.8009C26.666 25.9312 26.4231 26.0001 26.1753 26H23.4973C23.3887 26 23.28 25.9867 23.174 25.96L20.6667 25.3333M25.3333 18.6667V15.3333C25.3333 14.9797 25.1929 14.6406 24.9428 14.3905C24.6928 14.1405 24.3536 14 24 14H23.9367C23.6033 14 23.3333 14.27 23.3333 14.6033C23.3333 15.0793 23.1927 15.5447 22.928 15.9407L20.6667 19.3333V25.3333M25.3333 18.6667H24M20.6667 25.3333H19.3333C18.9797 25.3333 18.6406 25.1929 18.3905 24.9428C18.1405 24.6928 18 24.3536 18 24V20C18 19.6464 18.1405 19.3072 18.3905 19.0572C18.6406 18.8071 18.9797 18.6667 19.3333 18.6667H21" stroke="#2E8AF7" stroke-width="1.4" stroke-linecap="round" stroke-linejoin="round"/>
</g>
<defs>
<filter id="filter0_d_69_634" x="0" y="0" width="48" height="48" filterUnits="userSpaceOnUse" color-interpolation-filters="sRGB">
<feFlood flood-opacity="0" result="BackgroundImageFix"/>
<feColorMatrix in="SourceAlpha" type="matrix" values="0 0 0 0 0 0 0 0 0 0 0 0 0 0 0 0 0 0 127 0" result="hardAlpha"/>
<feOffset dy="4"/>
<feGaussianBlur stdDeviation="2"/>
<feComposite in2="hardAlpha" operator="out"/>
<feColorMatrix type="matrix" values="0 0 0 0 0 0 0 0 0 0 0 0 0 0 0 0 0 0 0.25 0"/>
<feBlend mode="normal" in2="BackgroundImageFix" result="effect1_dropShadow_69_634"/>
<feBlend mode="normal" in="SourceGraphic" in2="effect1_dropShadow_69_634" result="shape"/>
</filter>
</defs>
</svg>
