<svg width="48" height="16" viewBox="0 0 48 16" fill="none" xmlns="http://www.w3.org/2000/svg">
<path id="Today" d="M3.54199 12H4.41162V3.81787H7.54102V3.03076H0.412598V3.81787H3.54199V12ZM13.8938 12.0952C16.7058 12.0952 18.0134 9.95605 18.0134 7.51221C18.0134 5.06836 16.7058 2.93555 13.8938 2.93555C11.1008 2.93555 9.78682 5.06836 9.78682 7.51221C9.78682 9.95605 11.1008 12.0952 13.8938 12.0952ZM13.8938 11.3145C11.6594 11.3145 10.7009 9.56885 10.7009 7.51221C10.7009 5.46191 11.6594 3.70996 13.8938 3.70996C16.1472 3.70996 17.0993 5.46191 17.0993 7.51221C17.0993 9.56885 16.1472 11.3145 13.8938 11.3145ZM21.5795 12H23.9853C26.9306 12 28.5746 10.3877 28.5746 7.58203C28.5746 4.66211 26.9687 3.03076 23.9979 3.03076H21.5795V12ZM22.4491 11.1938V3.83691H23.9853C26.4989 3.83691 27.705 5.04932 27.705 7.55029C27.705 10.0386 26.2958 11.1938 23.9091 11.1938H22.4491ZM30.7442 12H31.6964L32.4708 9.83545H36.4254L37.1871 12H38.1329L34.8067 3.03076H34.0768L30.7442 12ZM32.7437 9.08008L34.4449 4.24951L36.1524 9.08008H32.7437ZM42.6829 12H43.5843V8.57227L46.9993 3.03076H45.9393L43.1272 7.72168L40.3216 3.03076H39.2679L42.6829 8.57227V12Z" fill="#727477"/>
</svg>
