<svg width="355" height="36" viewBox="0 0 355 36" fill="none" xmlns="http://www.w3.org/2000/svg">
<g filter="url(#filter0_d_27_218)">
<rect x="4" y="1" width="35" height="26" rx="13" fill="#2E8AF7"/>
<path d="M14.0703 18H15.6934L16.3613 16.2012H19.5312L20.1934 18H21.7988L18.5 9.7207H17.3867L14.0703 18ZM16.8301 14.9297L17.9492 11.9062L19.0625 14.9297H16.8301ZM23.9141 18.1172C24.2539 18.1172 24.6816 18.0586 24.9805 18V16.7988C24.8281 16.8223 24.6699 16.834 24.5879 16.834C24.3008 16.834 24.1191 16.7168 24.1191 16.4414V9.7207H22.6895V16.834C22.6895 17.8652 23.2402 18.1172 23.9141 18.1172ZM27.2773 18.1172C27.6172 18.1172 28.0449 18.0586 28.3438 18V16.7988C28.1914 16.8223 28.0332 16.834 27.9512 16.834C27.6641 16.834 27.4824 16.7168 27.4824 16.4414V9.7207H26.0527V16.834C26.0527 17.8652 26.6035 18.1172 27.2773 18.1172Z" fill="#ECEBED"/>
<path d="M62.2305 18H63.2559V14.4375H64.6094C66.3027 14.4375 67.4453 13.6055 67.4453 12.0996C67.4453 10.5938 66.2852 9.7207 64.6094 9.7207H62.2305V18ZM63.2559 13.4707V10.6875H64.6094C65.8105 10.6875 66.4199 11.209 66.4199 12.0996C66.4199 12.9902 65.834 13.4707 64.6094 13.4707H63.2559ZM68.7227 18H69.6836V15.1816C69.6836 13.6289 70.5332 13.0137 71.2715 13.0137C71.5059 13.0137 71.7285 13.0781 71.9277 13.1895L72.3848 12.3691C72.1211 12.1465 71.7637 12.0469 71.418 12.0469C70.7324 12.0469 69.9707 12.4512 69.6895 13.2949V12.1465H68.7227V18ZM75.4023 18.0996C77.1191 18.0996 78.2969 16.7344 78.2969 15.0586C78.2969 13.3945 77.1191 12.0469 75.4023 12.0469C73.6855 12.0469 72.5195 13.3945 72.5195 15.0586C72.5195 16.7344 73.6855 18.0996 75.4023 18.0996ZM75.4023 17.2383C74.2012 17.2383 73.5508 16.248 73.5508 15.0586C73.5508 13.875 74.2012 12.9082 75.4023 12.9082C76.6094 12.9082 77.2656 13.8809 77.2656 15.0586C77.2656 16.2422 76.6094 17.2383 75.4023 17.2383ZM84.0918 12.1465H80.9512V11.6953C80.9512 10.8457 81.3789 10.4297 82.1992 10.4297C82.7676 10.4297 83.2363 10.5938 83.6289 10.8926L84.0977 10.1953C83.5586 9.82617 82.9727 9.62109 82.1523 9.62109C80.9512 9.62109 79.9609 10.3066 79.9609 11.6777V12.1465H78.959V12.9844H79.9609V18H80.9512V12.9844H83.1719V18H84.0918V12.1465ZM87.1504 18.0996C87.4316 18.0996 87.7832 18.0527 88.0527 17.9941L88.0469 17.1562C87.877 17.1855 87.7129 17.2031 87.5957 17.2031C87.1152 17.2031 87.0156 16.916 87.0156 16.5234V9.7207H86.0195V16.7871C86.0195 17.6836 86.3711 18.0996 87.1504 18.0996ZM91.6445 18.0996C92.5996 18.0996 93.3027 17.7949 93.9531 17.0977L93.2617 16.4941C92.7754 17.0098 92.2949 17.1973 91.6504 17.1973C90.5547 17.1973 89.9629 16.4941 89.8867 15.3691H94.0996C94.123 15.2812 94.1465 15.0469 94.1465 14.8301C94.1465 13.623 93.5078 12.0469 91.5449 12.0469C89.752 12.0469 88.8379 13.4883 88.8379 15.0996C88.8379 16.7461 89.793 18.0996 91.6445 18.0996ZM89.8867 14.6426C89.998 13.6172 90.5488 12.8848 91.5391 12.8848C92.5234 12.8848 93.0391 13.5469 93.1387 14.2734C93.1621 14.3906 93.1621 14.5137 93.1621 14.6426H89.8867ZM97.3516 18.0996C98.4824 18.0996 99.502 17.502 99.502 16.2715C99.502 14.0625 96.2266 14.8594 96.2266 13.5938C96.2266 13.1543 96.6426 12.8379 97.3047 12.8379C97.9902 12.8379 98.4238 13.2305 98.6816 13.6992L99.4492 13.2832C99.0273 12.5039 98.2891 12.0469 97.3398 12.0469C96.2148 12.0469 95.2773 12.6211 95.2773 13.7227C95.2773 15.8262 98.5234 14.9297 98.5234 16.3184C98.5234 16.834 98.1133 17.2676 97.3047 17.2676C96.4434 17.2676 95.9512 16.7285 95.752 16.1719L94.9492 16.5234C95.2422 17.4141 96.168 18.0996 97.3516 18.0996Z" fill="#ECEBED"/>
<rect x="51.5" y="1.5" width="59" height="25" rx="12.5" stroke="#727477"/>
<path d="M134.23 18H135.256V14.4375H136.609C138.303 14.4375 139.445 13.6055 139.445 12.0996C139.445 10.5938 138.285 9.7207 136.609 9.7207H134.23V18ZM135.256 13.4707V10.6875H136.609C137.811 10.6875 138.42 11.209 138.42 12.0996C138.42 12.9902 137.834 13.4707 136.609 13.4707H135.256ZM140.805 18H141.812V14.7832C141.812 13.7168 142.357 12.9492 143.359 12.9492C144.326 12.9492 144.666 13.5996 144.666 14.5371V18H145.674V14.3555C145.656 13.1016 145.012 12.0469 143.588 12.0469C142.879 12.0469 142.211 12.3691 141.812 13.0371V9.7207H140.805V18ZM149.84 18.0996C151.557 18.0996 152.734 16.7344 152.734 15.0586C152.734 13.3945 151.557 12.0469 149.84 12.0469C148.123 12.0469 146.957 13.3945 146.957 15.0586C146.957 16.7344 148.123 18.0996 149.84 18.0996ZM149.84 17.2383C148.639 17.2383 147.988 16.248 147.988 15.0586C147.988 13.875 148.639 12.9082 149.84 12.9082C151.047 12.9082 151.703 13.8809 151.703 15.0586C151.703 16.2422 151.047 17.2383 149.84 17.2383ZM156.027 18.0996C156.391 18.0996 156.742 18.0293 156.93 17.959L156.924 17.0566C156.754 17.1328 156.467 17.2207 156.197 17.2207C155.658 17.2207 155.348 16.9395 155.348 16.2012V12.9844H156.93V12.1465H155.348V9.81445L154.369 10.5293V12.1465H153.391V12.9844H154.357V16.3652C154.357 17.4668 154.955 18.0996 156.027 18.0996ZM160.691 18.0996C162.408 18.0996 163.586 16.7344 163.586 15.0586C163.586 13.3945 162.408 12.0469 160.691 12.0469C158.975 12.0469 157.809 13.3945 157.809 15.0586C157.809 16.7344 158.975 18.0996 160.691 18.0996ZM160.691 17.2383C159.49 17.2383 158.84 16.248 158.84 15.0586C158.84 13.875 159.49 12.9082 160.691 12.9082C161.898 12.9082 162.555 13.8809 162.555 15.0586C162.555 16.2422 161.898 17.2383 160.691 17.2383ZM166.785 18.0996C167.916 18.0996 168.936 17.502 168.936 16.2715C168.936 14.0625 165.66 14.8594 165.66 13.5938C165.66 13.1543 166.076 12.8379 166.738 12.8379C167.424 12.8379 167.857 13.2305 168.115 13.6992L168.883 13.2832C168.461 12.5039 167.723 12.0469 166.773 12.0469C165.648 12.0469 164.711 12.6211 164.711 13.7227C164.711 15.8262 167.957 14.9297 167.957 16.3184C167.957 16.834 167.547 17.2676 166.738 17.2676C165.877 17.2676 165.385 16.7285 165.186 16.1719L164.383 16.5234C164.676 17.4141 165.602 18.0996 166.785 18.0996Z" fill="#ECEBED"/>
<rect x="123.5" y="1.5" width="56" height="25" rx="12.5" stroke="#727477"/>
<path d="M208.533 9.7207L205.984 16.3711L203.424 9.7207H202.281L205.574 18H206.383L209.664 9.7207H208.533ZM210.906 10.9629H211.943V9.7207H210.906V10.9629ZM210.93 18H211.92V12.1465H210.93V18ZM215.986 18.0996C216.83 18.0996 217.586 17.666 217.967 16.8926L218.008 18H218.934V9.7207H217.926V13.2012C217.545 12.4629 216.789 12.0469 215.969 12.0469C214.381 12.0469 213.402 13.4238 213.402 15.0703C213.402 16.7227 214.381 18.0996 215.986 18.0996ZM216.221 17.1973C215.072 17.1973 214.41 16.2656 214.41 15.0703C214.41 13.8809 215.072 12.9492 216.221 12.9492C217.357 12.9492 218.008 13.8691 218.008 15.0703C218.008 16.2773 217.357 17.1973 216.221 17.1973ZM223.234 18.0996C224.189 18.0996 224.893 17.7949 225.543 17.0977L224.852 16.4941C224.365 17.0098 223.885 17.1973 223.24 17.1973C222.145 17.1973 221.553 16.4941 221.477 15.3691H225.689C225.713 15.2812 225.736 15.0469 225.736 14.8301C225.736 13.623 225.098 12.0469 223.135 12.0469C221.342 12.0469 220.428 13.4883 220.428 15.0996C220.428 16.7461 221.383 18.0996 223.234 18.0996ZM221.477 14.6426C221.588 13.6172 222.139 12.8848 223.129 12.8848C224.113 12.8848 224.629 13.5469 224.729 14.2734C224.752 14.3906 224.752 14.5137 224.752 14.6426H221.477ZM229.551 18.0996C231.268 18.0996 232.445 16.7344 232.445 15.0586C232.445 13.3945 231.268 12.0469 229.551 12.0469C227.834 12.0469 226.668 13.3945 226.668 15.0586C226.668 16.7344 227.834 18.0996 229.551 18.0996ZM229.551 17.2383C228.35 17.2383 227.699 16.248 227.699 15.0586C227.699 13.875 228.35 12.9082 229.551 12.9082C230.758 12.9082 231.414 13.8809 231.414 15.0586C231.414 16.2422 230.758 17.2383 229.551 17.2383ZM235.645 18.0996C236.775 18.0996 237.795 17.502 237.795 16.2715C237.795 14.0625 234.52 14.8594 234.52 13.5938C234.52 13.1543 234.936 12.8379 235.598 12.8379C236.283 12.8379 236.717 13.2305 236.975 13.6992L237.742 13.2832C237.32 12.5039 236.582 12.0469 235.633 12.0469C234.508 12.0469 233.57 12.6211 233.57 13.7227C233.57 15.8262 236.816 14.9297 236.816 16.3184C236.816 16.834 236.406 17.2676 235.598 17.2676C234.736 17.2676 234.244 16.7285 234.045 16.1719L233.242 16.5234C233.535 17.4141 234.461 18.0996 235.645 18.0996Z" fill="#ECEBED"/>
<rect x="192.5" y="1.5" width="56" height="25" rx="12.5" stroke="#727477"/>
<path d="M274.082 18H275.113V10.6465H277.902V9.7207H271.293V10.6465H274.082V18ZM280.352 18.0996C281.307 18.0996 282.01 17.7949 282.66 17.0977L281.969 16.4941C281.482 17.0098 281.002 17.1973 280.357 17.1973C279.262 17.1973 278.67 16.4941 278.594 15.3691H282.807C282.83 15.2812 282.854 15.0469 282.854 14.8301C282.854 13.623 282.215 12.0469 280.252 12.0469C278.459 12.0469 277.545 13.4883 277.545 15.0996C277.545 16.7461 278.5 18.0996 280.352 18.0996ZM278.594 14.6426C278.705 13.6172 279.256 12.8848 280.246 12.8848C281.23 12.8848 281.746 13.5469 281.846 14.2734C281.869 14.3906 281.869 14.5137 281.869 14.6426H278.594ZM283.451 18H284.664L286.211 15.7441L287.758 18H288.977L286.867 15.0586L288.977 12.1465H287.752L286.211 14.3789L284.664 12.1465H283.451L285.555 15.0586L283.451 18ZM292.129 18.0996C292.492 18.0996 292.844 18.0293 293.031 17.959L293.025 17.0566C292.855 17.1328 292.568 17.2207 292.299 17.2207C291.76 17.2207 291.449 16.9395 291.449 16.2012V12.9844H293.031V12.1465H291.449V9.81445L290.471 10.5293V12.1465H289.492V12.9844H290.459V16.3652C290.459 17.4668 291.057 18.0996 292.129 18.0996Z" fill="#ECEBED"/>
<rect x="261.5" y="1.5" width="42" height="25" rx="12.5" stroke="#727477"/>
<path d="M327.23 18H331.971V17.0215H328.262V9.7207H327.23V18ZM333.23 10.9629H334.268V9.7207H333.23V10.9629ZM333.254 18H334.244V12.1465H333.254V18ZM336.207 18H337.197V14.625C337.197 13.5234 337.789 12.9668 338.721 12.9668C339.605 12.9668 340.068 13.5703 340.068 14.5371V18H341.059V14.3555C341.041 13.1016 340.414 12.0469 338.99 12.0469C338.281 12.0469 337.602 12.3691 337.197 13.0371V12.1465H336.207V18ZM342.887 18H343.877V16.2715L345.096 14.9766L347.053 18H348.225L345.77 14.3613L347.92 12.1465H346.625L343.877 15.082V9.7207H342.887V18ZM351.066 18.0996C352.197 18.0996 353.217 17.502 353.217 16.2715C353.217 14.0625 349.941 14.8594 349.941 13.5938C349.941 13.1543 350.357 12.8379 351.02 12.8379C351.705 12.8379 352.139 13.2305 352.396 13.6992L353.164 13.2832C352.742 12.5039 352.004 12.0469 351.055 12.0469C349.93 12.0469 348.992 12.6211 348.992 13.7227C348.992 15.8262 352.238 14.9297 352.238 16.3184C352.238 16.834 351.828 17.2676 351.02 17.2676C350.158 17.2676 349.666 16.7285 349.467 16.1719L348.664 16.5234C348.957 17.4141 349.883 18.0996 351.066 18.0996Z" fill="#ECEBED"/>
<rect x="316.5" y="1.5" width="47" height="25" rx="12.5" stroke="#727477"/>
</g>
<defs>
<filter id="filter0_d_27_218" x="0" y="0" width="425" height="36" filterUnits="userSpaceOnUse" color-interpolation-filters="sRGB">
<feFlood flood-opacity="0" result="BackgroundImageFix"/>
<feColorMatrix in="SourceAlpha" type="matrix" values="0 0 0 0 0 0 0 0 0 0 0 0 0 0 0 0 0 0 127 0" result="hardAlpha"/>
<feOffset dy="4"/>
<feGaussianBlur stdDeviation="2"/>
<feComposite in2="hardAlpha" operator="out"/>
<feColorMatrix type="matrix" values="0 0 0 0 0 0 0 0 0 0 0 0 0 0 0 0 0 0 0.25 0"/>
<feBlend mode="normal" in2="BackgroundImageFix" result="effect1_dropShadow_27_218"/>
<feBlend mode="normal" in="SourceGraphic" in2="effect1_dropShadow_27_218" result="shape"/>
</filter>
</defs>
</svg>
