<svg width="327" height="44" viewBox="0 0 327 44" fill="none" xmlns="http://www.w3.org/2000/svg">
<rect width="327" height="44" rx="22" fill="#323436"/>
<path d="M20.0127 26.5957C21.7969 26.5957 23.2051 25.502 23.2051 23.793C23.2051 20.6006 18.3379 21.332 18.3379 19.1992C18.3379 18.3789 19.0215 17.7979 19.917 17.7979C20.7305 17.7979 21.3525 18.1807 21.7627 18.9395L22.7607 18.3242C22.1318 17.21 21.1406 16.7246 19.958 16.7246C18.4062 16.7246 17.1348 17.6816 17.1348 19.2539C17.1348 22.3164 22.002 21.5371 22.002 23.8955C22.002 24.8184 21.25 25.5225 20.0332 25.5225C18.8301 25.5225 17.9004 24.873 17.7295 23.5811L16.54 23.8818C16.834 25.6592 18.3311 26.5957 20.0127 26.5957ZM27.6074 26.6162C28.7217 26.6162 29.542 26.2607 30.3008 25.4473L29.4941 24.7432C28.9268 25.3447 28.3662 25.5635 27.6143 25.5635C26.3359 25.5635 25.6455 24.7432 25.5566 23.4307H30.4717C30.499 23.3281 30.5264 23.0547 30.5264 22.8018C30.5264 21.3936 29.7812 19.5547 27.4912 19.5547C25.3994 19.5547 24.333 21.2363 24.333 23.1162C24.333 25.0371 25.4473 26.6162 27.6074 26.6162ZM25.5566 22.583C25.6865 21.3867 26.3291 20.5322 27.4844 20.5322C28.6328 20.5322 29.2344 21.3047 29.3506 22.1523C29.3779 22.2891 29.3779 22.4326 29.3779 22.583H25.5566ZM34.6006 19.5547C33.3496 19.5547 32.5293 20.0811 31.8662 20.9902L32.7549 21.6328C33.165 20.9971 33.7461 20.5664 34.6143 20.5664C35.9062 20.5664 36.3438 21.1885 36.3506 22.5215H34.416C32.7344 22.5215 31.5996 23.0615 31.5996 24.4766C31.5996 25.8301 32.6113 26.6162 33.999 26.6162C34.9355 26.6162 35.8789 26.1719 36.3643 25.2832L36.4395 26.5H37.4033V22.3369C37.4033 20.6416 36.3916 19.5547 34.6006 19.5547ZM34.2246 25.625C33.2949 25.625 32.7891 25.1807 32.7891 24.5176C32.7891 23.8271 33.3359 23.3691 34.4844 23.3691H36.3506V23.8135C36.125 24.8389 35.3799 25.625 34.2246 25.625ZM39.502 26.5H40.623V23.2119C40.623 21.4004 41.6143 20.6826 42.4756 20.6826C42.749 20.6826 43.0088 20.7578 43.2412 20.8877L43.7744 19.9307C43.4668 19.6709 43.0498 19.5547 42.6465 19.5547C41.8467 19.5547 40.958 20.0264 40.6299 21.0107V19.6709H39.502V26.5ZM47.124 26.6162C48.416 26.6162 49.4277 25.9053 49.8584 24.6816L48.8057 24.2852C48.5596 25.0645 47.9307 25.5635 47.1104 25.5635C45.7432 25.5635 45.1484 24.3809 45.1484 23.0957C45.1484 21.8311 45.7432 20.6074 47.1104 20.6074C47.9238 20.6074 48.5527 21.1133 48.8262 21.9062L49.9268 21.4756C49.4209 20.2041 48.3887 19.5547 47.1104 19.5547C44.998 19.5547 43.9727 21.3047 43.9727 23.0957C43.9727 24.9893 45.0732 26.6162 47.124 26.6162ZM51.4785 26.5H52.6543V22.7471C52.6543 21.5029 53.29 20.6074 54.459 20.6074C55.5869 20.6074 55.9834 21.3662 55.9834 22.46V26.5H57.1592V22.248C57.1387 20.7852 56.3867 19.5547 54.7256 19.5547C53.8984 19.5547 53.1191 19.9307 52.6543 20.71V16.8408H51.4785V26.5ZM63.2295 26.5H64.4258V20.6484H66.292V19.6709H64.4258V18.7754C64.4258 18.0645 64.7881 17.7568 65.3623 17.7568C65.5605 17.7568 65.7656 17.832 65.9639 17.9414L66.3467 16.9912C66.0117 16.8271 65.6426 16.7246 65.2598 16.7246C64.1113 16.7246 63.2363 17.3945 63.2363 18.6592V19.6709H61.8623V20.6484H63.2295V26.5ZM70.1133 26.6162C72.1162 26.6162 73.4902 25.0234 73.4902 23.0684C73.4902 21.127 72.1162 19.5547 70.1133 19.5547C68.1104 19.5547 66.75 21.127 66.75 23.0684C66.75 25.0234 68.1104 26.6162 70.1133 26.6162ZM70.1133 25.6113C68.7119 25.6113 67.9531 24.4561 67.9531 23.0684C67.9531 21.6875 68.7119 20.5596 70.1133 20.5596C71.5215 20.5596 72.2871 21.6943 72.2871 23.0684C72.2871 24.4492 71.5215 25.6113 70.1133 25.6113ZM75.1855 26.5H76.3066V23.2119C76.3066 21.4004 77.2979 20.6826 78.1592 20.6826C78.4326 20.6826 78.6924 20.7578 78.9248 20.8877L79.458 19.9307C79.1504 19.6709 78.7334 19.5547 78.3301 19.5547C77.5303 19.5547 76.6416 20.0264 76.3135 21.0107V19.6709H75.1855V26.5ZM84.1816 29.3301H85.3779V25.2695C85.8223 26.1309 86.6768 26.6162 87.6406 26.6162C89.5137 26.6162 90.5596 25.0166 90.5596 23.0889C90.5596 21.168 89.5137 19.5547 87.6611 19.5547C86.7041 19.5547 85.8223 20.04 85.3779 20.9014V19.6709H84.1816V29.3301ZM87.3809 25.5635C86.0479 25.5635 85.2754 24.4902 85.2754 23.0889C85.2754 21.6807 86.0479 20.6279 87.3809 20.6279C88.7139 20.6279 89.3975 21.7012 89.3975 23.0889C89.3975 24.4766 88.7139 25.5635 87.3809 25.5635ZM95.0234 26.6162C96.1377 26.6162 96.958 26.2607 97.7168 25.4473L96.9102 24.7432C96.3428 25.3447 95.7822 25.5635 95.0303 25.5635C93.752 25.5635 93.0615 24.7432 92.9727 23.4307H97.8877C97.915 23.3281 97.9424 23.0547 97.9424 22.8018C97.9424 21.3936 97.1973 19.5547 94.9072 19.5547C92.8154 19.5547 91.749 21.2363 91.749 23.1162C91.749 25.0371 92.8633 26.6162 95.0234 26.6162ZM92.9727 22.583C93.1025 21.3867 93.7451 20.5322 94.9004 20.5322C96.0488 20.5322 96.6504 21.3047 96.7666 22.1523C96.7939 22.2891 96.7939 22.4326 96.7939 22.583H92.9727ZM102.393 26.6162C104.396 26.6162 105.77 25.0234 105.77 23.0684C105.77 21.127 104.396 19.5547 102.393 19.5547C100.39 19.5547 99.0293 21.127 99.0293 23.0684C99.0293 25.0234 100.39 26.6162 102.393 26.6162ZM102.393 25.6113C100.991 25.6113 100.232 24.4561 100.232 23.0684C100.232 21.6875 100.991 20.5596 102.393 20.5596C103.801 20.5596 104.566 21.6943 104.566 23.0684C104.566 24.4492 103.801 25.6113 102.393 25.6113ZM107.479 29.3301H108.675V25.2695C109.119 26.1309 109.974 26.6162 110.938 26.6162C112.811 26.6162 113.856 25.0166 113.856 23.0889C113.856 21.168 112.811 19.5547 110.958 19.5547C110.001 19.5547 109.119 20.04 108.675 20.9014V19.6709H107.479V29.3301ZM110.678 25.5635C109.345 25.5635 108.572 24.4902 108.572 23.0889C108.572 21.6807 109.345 20.6279 110.678 20.6279C112.011 20.6279 112.694 21.7012 112.694 23.0889C112.694 24.4766 112.011 25.5635 110.678 25.5635ZM116.892 26.6162C117.22 26.6162 117.63 26.5615 117.944 26.4932L117.938 25.5156C117.739 25.5498 117.548 25.5703 117.411 25.5703C116.851 25.5703 116.734 25.2354 116.734 24.7773V16.8408H115.572V25.085C115.572 26.1309 115.982 26.6162 116.892 26.6162ZM122.135 26.6162C123.249 26.6162 124.069 26.2607 124.828 25.4473L124.021 24.7432C123.454 25.3447 122.894 25.5635 122.142 25.5635C120.863 25.5635 120.173 24.7432 120.084 23.4307H124.999C125.026 23.3281 125.054 23.0547 125.054 22.8018C125.054 21.3936 124.309 19.5547 122.019 19.5547C119.927 19.5547 118.86 21.2363 118.86 23.1162C118.86 25.0371 119.975 26.6162 122.135 26.6162ZM120.084 22.583C120.214 21.3867 120.856 20.5322 122.012 20.5322C123.16 20.5322 123.762 21.3047 123.878 22.1523C123.905 22.2891 123.905 22.4326 123.905 22.583H120.084ZM126.448 28.626H127.234L129.039 24.7021H127.706L126.448 28.626ZM134.508 29.3301H135.704V25.2695C136.148 26.1309 137.003 26.6162 137.967 26.6162C139.84 26.6162 140.886 25.0166 140.886 23.0889C140.886 21.168 139.84 19.5547 137.987 19.5547C137.03 19.5547 136.148 20.04 135.704 20.9014V19.6709H134.508V29.3301ZM137.707 25.5635C136.374 25.5635 135.602 24.4902 135.602 23.0889C135.602 21.6807 136.374 20.6279 137.707 20.6279C139.04 20.6279 139.724 21.7012 139.724 23.0889C139.724 24.4766 139.04 25.5635 137.707 25.5635ZM145.391 26.6162C147.394 26.6162 148.768 25.0234 148.768 23.0684C148.768 21.127 147.394 19.5547 145.391 19.5547C143.388 19.5547 142.027 21.127 142.027 23.0684C142.027 25.0234 143.388 26.6162 145.391 26.6162ZM145.391 25.6113C143.989 25.6113 143.23 24.4561 143.23 23.0684C143.23 21.6875 143.989 20.5596 145.391 20.5596C146.799 20.5596 147.564 21.6943 147.564 23.0684C147.564 24.4492 146.799 25.6113 145.391 25.6113ZM152.5 26.6162C153.819 26.6162 155.009 25.9189 155.009 24.4834C155.009 21.9062 151.188 22.8359 151.188 21.3594C151.188 20.8467 151.673 20.4775 152.445 20.4775C153.245 20.4775 153.751 20.9355 154.052 21.4824L154.947 20.9971C154.455 20.0879 153.594 19.5547 152.486 19.5547C151.174 19.5547 150.08 20.2246 150.08 21.5098C150.08 23.9639 153.867 22.918 153.867 24.5381C153.867 25.1396 153.389 25.6455 152.445 25.6455C151.44 25.6455 150.866 25.0166 150.634 24.3672L149.697 24.7773C150.039 25.8164 151.119 26.6162 152.5 26.6162ZM158.953 26.6162C159.377 26.6162 159.787 26.5342 160.006 26.4521L159.999 25.3994C159.801 25.4883 159.466 25.5908 159.151 25.5908C158.522 25.5908 158.16 25.2627 158.16 24.4014V20.6484H160.006V19.6709H158.16V16.9502L157.019 17.7842V19.6709H155.877V20.6484H157.005V24.5928C157.005 25.8779 157.702 26.6162 158.953 26.6162ZM163.889 26.6162C165.208 26.6162 166.397 25.9189 166.397 24.4834C166.397 21.9062 162.576 22.8359 162.576 21.3594C162.576 20.8467 163.062 20.4775 163.834 20.4775C164.634 20.4775 165.14 20.9355 165.44 21.4824L166.336 20.9971C165.844 20.0879 164.982 19.5547 163.875 19.5547C162.562 19.5547 161.469 20.2246 161.469 21.5098C161.469 23.9639 165.256 22.918 165.256 24.5381C165.256 25.1396 164.777 25.6455 163.834 25.6455C162.829 25.6455 162.255 25.0166 162.022 24.3672L161.086 24.7773C161.428 25.8164 162.508 26.6162 163.889 26.6162ZM168.038 28.626H168.824L170.629 24.7021H169.296L168.038 28.626ZM178.271 26.6162C178.695 26.6162 179.105 26.5342 179.324 26.4521L179.317 25.3994C179.119 25.4883 178.784 25.5908 178.47 25.5908C177.841 25.5908 177.479 25.2627 177.479 24.4014V20.6484H179.324V19.6709H177.479V16.9502L176.337 17.7842V19.6709H175.195V20.6484H176.323V24.5928C176.323 25.8779 177.021 26.6162 178.271 26.6162ZM183.433 19.5547C182.182 19.5547 181.361 20.0811 180.698 20.9902L181.587 21.6328C181.997 20.9971 182.578 20.5664 183.446 20.5664C184.738 20.5664 185.176 21.1885 185.183 22.5215H183.248C181.566 22.5215 180.432 23.0615 180.432 24.4766C180.432 25.8301 181.443 26.6162 182.831 26.6162C183.768 26.6162 184.711 26.1719 185.196 25.2832L185.271 26.5H186.235V22.3369C186.235 20.6416 185.224 19.5547 183.433 19.5547ZM183.057 25.625C182.127 25.625 181.621 25.1807 181.621 24.5176C181.621 23.8271 182.168 23.3691 183.316 23.3691H185.183V23.8135C184.957 24.8389 184.212 25.625 183.057 25.625ZM191.055 25.5977C189.838 25.4268 188.929 25.3516 188.929 24.6611C188.929 24.3945 189.065 24.2031 189.353 24.0664C189.756 24.2715 190.228 24.3877 190.747 24.3877C192.21 24.3877 193.379 23.458 193.379 22.0156C193.379 21.5439 193.256 21.1133 193.037 20.7578L193.974 19.9785L193.372 19.2266L192.401 20.0674C191.943 19.7393 191.355 19.5547 190.713 19.5547C189.236 19.5547 188.054 20.5391 188.054 21.9541C188.054 22.5625 188.266 23.0957 188.635 23.5127C188.177 23.8477 187.931 24.2715 187.931 24.8594C187.931 25.5361 188.272 25.9326 188.744 26.1787L187.801 27.0195C187.787 27.1084 187.78 27.1904 187.78 27.3203C187.78 28.6875 188.908 29.6719 190.918 29.6719C192.593 29.6719 193.823 28.9336 193.823 27.5254C193.823 26.0283 192.401 25.7959 191.055 25.5977ZM190.754 20.457C191.67 20.457 192.23 21.0791 192.23 21.9678C192.23 22.8291 191.677 23.4375 190.747 23.4375C189.811 23.4375 189.25 22.8291 189.25 21.9609C189.25 21.0859 189.831 20.457 190.754 20.457ZM190.911 28.7627C189.811 28.7627 188.977 28.332 188.84 27.4707L188.819 27.2656L189.462 26.4248C189.858 26.5137 190.275 26.5615 190.651 26.6094C191.902 26.7666 192.723 26.8965 192.723 27.6484C192.723 28.3594 192.012 28.7627 190.911 28.7627ZM197.494 26.6162C198.813 26.6162 200.003 25.9189 200.003 24.4834C200.003 21.9062 196.182 22.8359 196.182 21.3594C196.182 20.8467 196.667 20.4775 197.439 20.4775C198.239 20.4775 198.745 20.9355 199.046 21.4824L199.941 20.9971C199.449 20.0879 198.588 19.5547 197.48 19.5547C196.168 19.5547 195.074 20.2246 195.074 21.5098C195.074 23.9639 198.861 22.918 198.861 24.5381C198.861 25.1396 198.383 25.6455 197.439 25.6455C196.435 25.6455 195.86 25.0166 195.628 24.3672L194.691 24.7773C195.033 25.8164 196.113 26.6162 197.494 26.6162ZM202.19 26.5H203.359V24.8936H202.19V26.5ZM206.524 26.5H207.693V24.8936H206.524V26.5ZM210.858 26.5H212.027V24.8936H210.858V26.5Z" fill="#ECEBED"/>
<path fill-rule="evenodd" clip-rule="evenodd" d="M299 16C297.939 16 296.922 16.4214 296.172 17.1716C295.421 17.9217 295 18.9391 295 20C295 21.0609 295.421 22.0783 296.172 22.8284C296.922 23.5786 297.939 24 299 24C300.061 24 301.078 23.5786 301.828 22.8284C302.579 22.0783 303 21.0609 303 20C303 18.9391 302.579 17.9217 301.828 17.1716C301.078 16.4214 300.061 16 299 16ZM293 20C293 19.0557 293.223 18.1247 293.65 17.2827C294.078 16.4408 294.698 15.7116 295.46 15.1545C296.223 14.5974 297.106 14.2282 298.038 14.0768C298.97 13.9254 299.925 13.9962 300.824 14.2833C301.724 14.5705 302.543 15.0659 303.215 15.7293C303.887 16.3927 304.393 17.2053 304.692 18.1011C304.991 18.9969 305.074 19.9506 304.934 20.8845C304.795 21.8185 304.437 22.7064 303.89 23.476L308.707 28.293C308.889 28.4816 308.99 28.7342 308.988 28.9964C308.985 29.2586 308.88 29.5094 308.695 29.6948C308.509 29.8802 308.259 29.9854 307.996 29.9877C307.734 29.9899 307.482 29.8891 307.293 29.707L302.477 24.891C301.579 25.5293 300.523 25.9081 299.425 25.9861C298.326 26.0641 297.227 25.8381 296.248 25.333C295.27 24.8278 294.449 24.063 293.876 23.1223C293.303 22.1817 293 21.1014 293 20Z" fill="#727477"/>
</svg>
